HIERARCHY
ROOT joint_Root
{
	OFFSET 0.0 0.0 0.0
	CHANNELS 6 Xposition Yposition Zposition Zrotation Xrotation Yrotation 
	JOINT Hips
	{
		OFFSET 4.5925 91.4895 -427.239
		CHANNELS 6 Xposition Yposition Zposition Zrotation Xrotation Yrotation 
		JOINT Spine
		{
			OFFSET 15.7357 0.0 0.0
			CHANNELS 6 Xposition Yposition Zposition Zrotation Xrotation Yrotation 
			JOINT Chest
			{
				OFFSET 8.98455 -0.406207 0.0
				CHANNELS 6 Xposition Yposition Zposition Zrotation Xrotation Yrotation 
				JOINT Neck
				{
					OFFSET 16.3773 0.0 0.0
					CHANNELS 6 Xposition Yposition Zposition Zrotation Xrotation Yrotation 
					JOINT Head
					{
						OFFSET 6.45672 0.0 0.0
						CHANNELS 6 Xposition Yposition Zposition Zrotation Xrotation Yrotation 
						End Site
						{
							OFFSET 0.0 0.0 0.0
						}
					}
				}
				JOINT Shoulder_L
				{
					OFFSET 12.9942 -0.242716 4.98039
					CHANNELS 6 Xposition Yposition Zposition Zrotation Xrotation Yrotation 
					JOINT UpperArm_L
					{
						OFFSET 5.34809 0.0 0.0
						CHANNELS 6 Xposition Yposition Zposition Zrotation Xrotation Yrotation 
						JOINT LowerArm_L
						{
							OFFSET 24.3286 1.87007e-05 0.0
							CHANNELS 6 Xposition Yposition Zposition Zrotation Xrotation Yrotation 
							JOINT Hand_L
							{
								OFFSET 22.2916 0.0 0.0
								CHANNELS 6 Xposition Yposition Zposition Zrotation Xrotation Yrotation 
								End Site
								{
									OFFSET 0.0 0.0 0.0
								}
							}
						}
					}
				}
				JOINT Shoulder_R
				{
					OFFSET 12.9945 -0.242716 -4.98039
					CHANNELS 6 Xposition Yposition Zposition Zrotation Xrotation Yrotation 
					JOINT UpperArm_R
					{
						OFFSET -5.34813 0.0 0.0
						CHANNELS 6 Xposition Yposition Zposition Zrotation Xrotation Yrotation 
						JOINT LowerArm_R
						{
							OFFSET -24.3289 0.000322201 0.0
							CHANNELS 6 Xposition Yposition Zposition Zrotation Xrotation Yrotation 
							JOINT Hand_R
							{
								OFFSET -22.2915 -0.000108084 0.0
								CHANNELS 6 Xposition Yposition Zposition Zrotation Xrotation Yrotation 
								End Site
								{
									OFFSET 0.0 0.0 0.0
								}
							}
						}
					}
				}
			}
		}
		JOINT UpperLeg_L
		{
			OFFSET -2.19248 -6.46944 0.0
			CHANNELS 6 Xposition Yposition Zposition Zrotation Xrotation Yrotation 
			JOINT LowerLeg_L
			{
				OFFSET 39.0811 0.0 -1.23785e-05
				CHANNELS 6 Xposition Yposition Zposition Zrotation Xrotation Yrotation 
				JOINT Foot_L
				{
					OFFSET 40.9854 0.0 -1.26872e-05
					CHANNELS 6 Xposition Yposition Zposition Zrotation Xrotation Yrotation 
					JOINT Toes_L
					{
						OFFSET 11.7543 0.0 0.0
						CHANNELS 6 Xposition Yposition Zposition Zrotation Xrotation Yrotation 
						End Site
						{
							OFFSET 0.0 0.0 0.0
						}
					}
				}
			}
		}
		JOINT UpperLeg_R
		{
			OFFSET -2.19251 6.46944 0.0
			CHANNELS 6 Xposition Yposition Zposition Zrotation Xrotation Yrotation 
			JOINT LowerLeg_R
			{
				OFFSET -39.0811 -0.00228153 -0.0401928
				CHANNELS 6 Xposition Yposition Zposition Zrotation Xrotation Yrotation 
				JOINT Foot_R
				{
					OFFSET -40.9854 0.0 0.0
					CHANNELS 6 Xposition Yposition Zposition Zrotation Xrotation Yrotation 
					JOINT Toes_R
					{
						OFFSET -11.7543 0.0 0.0
						CHANNELS 6 Xposition Yposition Zposition Zrotation Xrotation Yrotation 
						End Site
						{
							OFFSET 0.0 0.0 0.0
						}
					}
				}
			}
		}
	}
}
MOTION
Frames:	6
Frame Time:	0.0333333
0.000000 0.000000 0.000000 0.000000 0.000000 -0.000000 123.775000 86.234200 131.708000 100.323000 -40.827300 7.182340 15.735700 0.000005 -0.000001 112.469000 83.496400 -113.889000 8.984550 -0.406207 -0.000000 4.330870 5.005690 -3.027320 16.377300 -0.000001 -0.000001 2.744270 -13.235800 3.356570 6.456720 -0.000001 -0.000000 -1.508630 -22.352800 7.435970 12.994200 -0.242716 4.980390 -89.767000 -0.534201 -66.471600 5.348090 -0.000007 -0.000001 -70.057900 26.016500 22.488700 24.328600 0.000019 0.000005 -1.575570 -0.221396 -81.991000 22.291600 -0.000001 0.000005 5.802060 5.548230 -8.623910 12.994500 -0.242716 -4.980390 88.820300 6.362810 -79.476200 -5.348130 -0.000001 -0.000004 -60.640800 38.035100 -15.518600 -24.328900 0.000322 -0.000009 -17.850100 1.751630 -95.438900 -22.291500 -0.000108 -0.000004 19.324400 5.621050 -12.698500 -2.192480 -6.469440 -0.000000 -176.977000 -13.020700 -27.318900 39.081100 -0.000007 -0.000012 -0.093834 0.122064 37.551200 40.985400 -0.000006 -0.000013 -8.125470 11.765600 -58.027000 11.754300 -0.000000 0.000003 -0.002594 -0.035926 -18.037700 -2.192510 6.469440 -0.000001 173.498000 2.652410 -171.048000 -39.081100 -0.002282 -0.040193 0.064200 -0.077545 38.152000 -40.985400 0.000008 0.000006 20.518900 10.058000 -76.321600 -11.754300 -0.000006 -0.000006 -0.127570 -0.508377 -37.946100
0.000000 0.000000 0.000000 0.000000 0.000000 -0.000000 121.606000 84.910300 136.456000 100.506000 -40.634800 8.520240 15.735700 0.000005 -0.000001 102.140000 83.640800 -103.507000 8.984550 -0.406207 -0.000000 4.706020 2.706180 -2.842510 16.377300 -0.000001 -0.000001 2.974190 -13.989300 3.771490 6.456720 -0.000001 -0.000000 -1.237140 -21.903700 7.759230 12.994200 -0.242716 4.980390 -91.443000 3.400420 -66.987800 5.348090 -0.000007 -0.000001 -67.246000 26.122600 13.536700 24.328600 0.000019 0.000005 -3.121580 -0.272119 -85.016800 22.291600 -0.000001 0.000005 7.179750 5.541930 -8.333030 12.994500 -0.242716 -4.980390 88.036300 9.256670 -77.970000 -5.348130 -0.000001 -0.000004 -62.876600 36.798500 -5.307730 -24.328900 0.000322 -0.000009 -19.718400 -3.554090 -80.186700 -22.291500 -0.000108 -0.000004 18.601700 5.631440 -13.447700 -2.192480 -6.469440 -0.000000 -176.561000 -8.990130 -26.703500 39.081100 -0.000007 -0.000012 -0.320513 0.310401 45.918800 40.985400 -0.000006 -0.000013 -7.790020 9.315750 -66.336800 11.754300 -0.000000 0.000003 -0.000132 -0.001304 -16.627300 -2.192510 6.469440 -0.000001 172.389000 3.442430 -173.531000 -39.081100 -0.002282 -0.040193 0.105293 -0.087911 49.254800 -40.985400 0.000008 0.000006 20.060500 10.322600 -67.865100 -11.754300 -0.000006 -0.000006 -0.304658 -0.795835 -51.667600
0.000000 0.000000 0.000000 0.000000 0.000000 -0.000000 119.415000 84.267800 140.593000 100.579000 -40.012900 10.632400 15.735700 0.000005 -0.000001 93.103700 83.177800 -94.528400 8.984550 -0.406207 -0.000000 5.869870 0.760383 -2.885120 16.377300 -0.000001 -0.000001 3.178300 -15.139200 4.037100 6.456720 -0.000001 -0.000000 -0.073371 -22.159000 8.682590 12.994200 -0.242716 4.980390 -92.063600 5.041190 -67.703400 5.348090 -0.000007 -0.000001 -64.744000 28.650500 -1.014940 24.328600 0.000019 0.000005 -2.712380 -0.069136 -88.547300 22.291600 -0.000001 0.000005 8.067250 5.536440 -8.082180 12.994500 -0.242716 -4.980390 87.497300 10.389000 -76.375900 -5.348130 -0.000001 -0.000004 -65.605000 33.050500 3.795460 -24.328900 0.000322 -0.000009 -14.176200 -7.024620 -64.152100 -22.291500 -0.000108 -0.000004 21.608200 5.640810 -14.159500 -2.192480 -6.469440 -0.000000 -176.627000 -5.272260 -23.001900 39.081100 -0.000007 -0.000012 -0.367829 0.312933 49.611200 40.985400 -0.000006 -0.000013 -7.907050 7.286750 -72.119500 11.754300 -0.000000 0.000003 -0.000194 -0.001807 -16.645800 -2.192510 6.469440 -0.000001 171.366000 4.178070 -179.565000 -39.081100 -0.002282 -0.040193 0.195796 -0.096277 63.442700 -40.985400 0.000008 0.000006 13.868800 12.334700 -52.920300 -11.754300 -0.000006 -0.000006 -0.210393 -0.662093 -45.029700
0.000000 0.000000 0.000000 0.000000 0.000000 -0.000000 117.313000 84.146500 143.815000 101.241000 -42.082500 12.199500 15.735700 0.000005 -0.000001 91.771400 82.657200 -93.376000 8.984550 -0.406207 -0.000000 6.921290 0.464230 -3.233730 16.377300 -0.000001 -0.000001 2.857200 -15.393200 3.843740 6.456720 -0.000001 -0.000000 0.398516 -22.446900 9.192510 12.994200 -0.242716 4.980390 -91.560800 4.020270 -68.763800 5.348090 -0.000007 -0.000001 -62.628000 30.224000 -17.802600 24.328600 0.000019 0.000005 -2.135700 0.121453 -93.262600 22.291600 -0.000001 0.000005 7.765680 5.535770 -8.052470 12.994500 -0.242716 -4.980390 87.497100 10.193100 -76.124800 -5.348130 -0.000001 -0.000004 -67.296700 29.903800 14.517100 -24.328900 0.000322 -0.000009 -20.541300 -10.346800 -64.377600 -22.291500 -0.000108 -0.000004 19.439700 5.645340 -14.582100 -2.192480 -6.469440 -0.000000 -176.514000 -8.205940 -18.757400 39.081100 -0.000007 -0.000012 -0.390595 0.325791 50.169800 40.985400 -0.000006 -0.000013 -7.058430 8.416240 -75.543800 11.754300 -0.000000 0.000003 -0.000194 -0.001805 -16.645700 -2.192510 6.469440 -0.000001 171.336000 1.443530 170.921000 -39.081100 -0.002282 -0.040193 0.342120 -0.087631 75.510800 -40.985400 0.000008 0.000006 1.423360 7.169150 -37.317900 -11.754300 -0.000006 -0.000006 -0.022492 -0.180721 -23.961700
0.000000 0.000000 0.000000 0.000000 0.000000 -0.000000 114.792000 85.122600 146.542000 100.333000 -43.854200 11.498900 15.735700 0.000005 -0.000001 83.933700 82.681700 -85.220000 8.984550 -0.406207 -0.000000 6.774590 -1.530630 -2.479160 16.377300 -0.000001 -0.000001 3.148180 -14.903800 2.977920 6.456720 -0.000001 -0.000000 -0.014892 -20.146000 8.369250 12.994200 -0.242716 4.980390 -90.717300 1.924970 -69.564000 5.348090 -0.000007 -0.000001 -60.926600 28.969100 -30.523900 24.328600 0.000019 0.000005 -1.397940 0.227651 -99.261800 22.291600 -0.000001 0.000005 7.452610 5.537700 -8.138500 12.994500 -0.242716 -4.980390 87.830100 7.819880 -74.435500 -5.348130 -0.000001 -0.000004 -68.591700 34.413000 21.735100 -24.328900 0.000322 -0.000009 -21.590700 -8.571530 -69.370600 -22.291500 -0.000108 -0.000004 17.806500 5.649710 -14.987500 -2.192480 -6.469440 -0.000000 -175.395000 -8.525370 -13.698400 39.081100 -0.000007 -0.000012 -0.392045 0.375109 46.265600 40.985400 -0.000006 -0.000013 -7.690420 7.391890 -76.789600 11.754300 -0.000000 0.000003 -0.000161 -0.001539 -16.635900 -2.192510 6.469440 -0.000001 173.598000 1.986820 164.089000 -39.081100 -0.002282 -0.040193 0.300415 -0.044196 81.554000 -40.985400 0.000008 0.000006 5.051000 1.676840 -44.559700 -11.754300 -0.000006 -0.000006 -0.024365 -0.190366 -24.360000
0.000000 0.000000 0.000000 0.000000 0.000000 -0.000000 111.938000 86.710800 148.940000 98.220700 -45.148600 9.769400 15.735700 0.000005 -0.000001 70.444400 82.505800 -71.117900 8.984550 -0.406207 -0.000000 6.347330 -4.993910 -1.069050 16.377300 -0.000001 -0.000001 3.560800 -13.849500 2.111350 6.456720 -0.000001 -0.000000 0.026724 -17.069100 6.952800 12.994200 -0.242716 4.980390 -89.755100 -0.661015 -69.674200 5.348090 -0.000007 -0.000001 -59.642200 26.321200 -38.444800 24.328600 0.000019 0.000005 -2.309330 0.622995 -105.068000 22.291600 -0.000001 0.000005 7.744150 5.531560 -7.866900 12.994500 -0.242716 -4.980390 88.520300 4.944950 -73.314800 -5.348130 -0.000001 -0.000004 -69.814100 39.563000 26.151100 -24.328900 0.000322 -0.000009 -16.588500 -4.862550 -74.121300 -22.291500 -0.000108 -0.000004 16.031100 5.644580 -14.510700 -2.192480 -6.469440 -0.000000 -173.514000 -8.032030 -7.209970 39.081100 -0.000007 -0.000012 -0.347624 0.432898 38.765800 40.985400 -0.000006 -0.000013 -8.784840 5.984200 -76.082000 11.754300 -0.000000 0.000003 -0.000117 -0.001176 -16.622500 -2.192510 6.469440 -0.000001 176.760000 3.989510 158.774000 -39.081100 -0.002282 -0.040193 0.251687 -0.038098 81.297400 -40.985400 0.000008 0.000006 6.565020 -1.689120 -49.823200 -11.754300 -0.000006 -0.000006 -0.023407 -0.185477 -24.158000
